<svg xmlns="http://www.w3.org/2000/svg" viewBox="0 0 1200 800" width="100%" height="100%">
    <defs>
        <style>
            .bg { fill: #ffffff; }
            .layer-base {
                fill: rgba(248, 250, 252, 0.9);
                stroke: #cbd5e1;
                stroke-width: 2;
                stroke-linejoin: round;
            }
            .layer-hover {
                fill: rgba(59, 130, 246, 0.05);
                stroke: #3b82f6;
                stroke-width: 3;
                filter: drop-shadow(0 20px 30px rgba(59, 130, 246, 0.15));
                transition: transform 0.3s ease;
            }

            .placeholder-text-title { fill: #e2e8f0; rx: 8; }
            .placeholder-text-subtitle { fill: #cbd5e1; rx: 4; }
            .placeholder-layer-label { fill: #cbd5e1; rx: 6; }
            .placeholder-layer-desc { fill: #f1f5f9; rx: 4; }

            .connecting-line { stroke: #94a3b8; stroke-width: 2; stroke-dasharray: 4 6; fill: none; }

            .indicator-dot { fill: #3b82f6; stroke: #ffffff; stroke-width: 4; }
        </style>

        <filter id="softShadow" x="-10%" y="-10%" width="120%" height="120%">
            <feDropShadow dx="0" dy="15" stdDeviation="20" flood-opacity="0.08" />
        </filter>
    </defs>

    <rect width="1200" height="800" class="bg" />

    <!-- Title Section -->
    <g id="header-group" transform="translate(60, 80)">
        <rect id="header-subtitle-placeholder" x="0" y="0" width="180" height="14" class="placeholder-text-subtitle" />
        <rect id="header-title-placeholder" x="0" y="25" width="340" height="36" class="placeholder-text-title" />
    </g>

    <!-- Isometric Layer Stack (Center/Right) -->
    <!-- The math creates a pseudo-3D isometric diamond stack -->

    <!-- Base Layer (Data Infrastructure) -->
    <g id="layer-3-data">
        <path d="M 500 680 L 900 520 L 700 400 L 300 560 Z" class="layer-base" filter="url(#softShadow)" />
        <path d="M 500 680 L 900 520 L 700 400 L 300 560 Z" fill="transparent" class="interactive-zone" />

        <!-- Surface Details -->
        <rect x="520" y="520" width="60" height="20" fill="#e2e8f0" transform="skewX(-45) skewY(20)" opacity="0.5" />
        <rect x="620" y="480" width="100" height="20" fill="#e2e8f0" transform="skewX(-45) skewY(20)" opacity="0.5" />

        <!-- Label Line & Text Placeholders (Left) -->
        <path d="M 300 560 L 220 560" class="connecting-line" />
        <circle cx="300" cy="560" r="8" class="indicator-dot" />

        <rect id="layer-3-label-placeholder" x="80" y="535" width="120" height="24" class="placeholder-layer-label" />
        <rect id="layer-3-desc-1-placeholder" x="40" y="565" width="160" height="12" class="placeholder-layer-desc" />
        <rect id="layer-3-desc-2-placeholder" x="60" y="585" width="140" height="12" class="placeholder-layer-desc" />
    </g>

    <!-- Middle Layer (Business Logic) -->
    <g id="layer-2-logic" transform="translate(0, -120)">
        <path d="M 500 680 L 900 520 L 700 400 L 300 560 Z" class="layer-base" filter="url(#softShadow)" />

        <!-- Decorative grid to imply logic/services -->
        <path d="M 400 600 L 800 440" stroke="#cbd5e1" stroke-width="2" stroke-dasharray="4 4" />
        <path d="M 600 600 L 800 520" stroke="#cbd5e1" stroke-width="2" stroke-dasharray="4 4" />

        <!-- Label Line & Text Placeholders (Right) -->
        <path d="M 900 520 L 980 520" class="connecting-line" />
        <circle cx="900" cy="520" r="8" class="indicator-dot" />

        <rect id="layer-2-label-placeholder" x="1000" y="495" width="140" height="24" class="placeholder-layer-label" />
        <rect id="layer-2-desc-1-placeholder" x="1000" y="525" width="160" height="12" class="placeholder-layer-desc" />
        <rect id="layer-2-desc-2-placeholder" x="1000" y="545" width="120" height="12" class="placeholder-layer-desc" />
    </g>

    <!-- Top Layer (Presentation / UI) -->
    <g id="layer-1-ui" transform="translate(0, -260)">
        <!-- Emphasized Layer via layer-hover class defaults to simulate active state -->
        <path d="M 500 680 L 900 520 L 700 400 L 300 560 Z" class="layer-hover" />

        <!-- Floating UI Cards -->
        <rect x="520" y="520" width="80" height="40" rx="4" fill="#ffffff" stroke="#3b82f6" stroke-width="1.5" transform="skewX(-45) skewY(20)" filter="url(#softShadow)" />
        <rect x="660" y="460" width="60" height="60" rx="4" fill="#ffffff" stroke="#3b82f6" stroke-width="1.5" transform="skewX(-45) skewY(20)" filter="url(#softShadow)" />
        <rect x="500" y="420" width="120" height="30" rx="4" fill="#ffffff" stroke="#3b82f6" stroke-width="1.5" transform="skewX(-45) skewY(20)" filter="url(#softShadow)" />

        <!-- Label Line & Text Placeholders (Left) -->
        <path d="M 300 560 L 220 560" class="connecting-line" />
        <circle cx="300" cy="560" r="8" class="indicator-dot" />

        <rect id="layer-1-label-placeholder" x="60" y="535" width="140" height="24" class="placeholder-layer-label" style="fill: #3b82f6; opacity: 0.2;" />
        <rect id="layer-1-desc-1-placeholder" x="20" y="565" width="180" height="12" class="placeholder-layer-desc" />
        <rect id="layer-1-desc-2-placeholder" x="40" y="585" width="160" height="12" class="placeholder-layer-desc" />
    </g>

    <!-- Depth Connector Lines to show relationship between stacks -->
    <path d="M 300 560 L 300 300" class="connecting-line" opacity="0.3" />
    <path d="M 900 520 L 900 260" class="connecting-line" opacity="0.3" />
    <path d="M 500 680 L 500 420" class="connecting-line" opacity="0.3" />
    <path d="M 700 400 L 700 140" class="connecting-line" opacity="0.3" />

</svg>